<svg xmlns="http://www.w3.org/2000/svg" version="1.1" xmlns:xlink="http://www.w3.org/1999/xlink" viewBox="0 0 200 200"><rect width="200" height="200" fill="url('#gradient')"></rect><defs><linearGradient id="gradient" gradientTransform="rotate(45 0.5 0.5)"><stop offset="0%" stop-color="#6f00de"></stop><stop offset="100%" stop-color="#7800ff"></stop></linearGradient></defs><g><g fill="#ffffff" transform="matrix(2.6585893552574644,0,0,2.6585893552574644,9.063850260616533,118.63842971909877)" stroke="#ffffff" stroke-width="0.2"><path d="M12.24-14.22L12.24-11.57L7.97-11.57L7.97 0L4.54 0L4.54-11.57L0.35-11.57L0.35-14.22L12.24-14.22ZM19.35-10.64L19.29-7.59L18.20-7.67Q16.65-7.67 16.21-6.69L16.21-6.69L16.21 0L12.92 0L12.92-10.57L16.01-10.57L16.11-9.21Q16.94-10.76 18.43-10.76L18.43-10.76Q18.96-10.76 19.35-10.64L19.35-10.64ZM29.42 0L26.13 0Q25.96-0.32 25.82-0.95L25.82-0.95Q24.91 0.20 23.28 0.20L23.28 0.20Q21.79 0.20 20.74-0.71Q19.70-1.61 19.70-2.98L19.70-2.98Q19.70-4.70 20.97-5.58Q22.24-6.46 24.66-6.46L24.66-6.46L25.67-6.46L25.67-7.01Q25.67-8.47 24.41-8.47L24.41-8.47Q23.24-8.47 23.24-7.31L23.24-7.31L19.95-7.31Q19.95-8.85 21.25-9.80Q22.56-10.76 24.58-10.76Q26.60-10.76 27.77-9.78Q28.95-8.79 28.97-7.07L28.97-7.07L28.97-2.39Q28.99-0.94 29.42-0.17L29.42-0.17L29.42 0ZM24.07-2.15L24.07-2.15Q24.69-2.15 25.09-2.41Q25.50-2.68 25.67-3.01L25.67-3.01L25.67-4.70L24.72-4.70Q23.00-4.70 23.00-3.15L23.00-3.15Q23.00-2.71 23.30-2.43Q23.60-2.15 24.07-2.15ZM35.26-2.34L35.26-2.34Q35.96-2.34 36.34-2.72Q36.72-3.10 36.71-3.77L36.71-3.77L39.79-3.77Q39.79-2.03 38.55-0.92Q37.30 0.20 35.34 0.20L35.34 0.20Q33.04 0.20 31.71-1.25Q30.38-2.70 30.38-5.25L30.38-5.25L30.38-5.39Q30.38-6.99 30.97-8.22Q31.56-9.44 32.68-10.10Q33.79-10.76 35.31-10.76L35.31-10.76Q37.37-10.76 38.58-9.62Q39.79-8.48 39.79-6.52L39.79-6.52L36.71-6.52Q36.71-7.34 36.31-7.78Q35.91-8.22 35.23-8.22L35.23-8.22Q33.96-8.22 33.74-6.59L33.74-6.59Q33.67-6.07 33.67-5.17L33.67-5.17Q33.67-3.57 34.05-2.96Q34.43-2.34 35.26-2.34ZM41.73-13.19L45.02-13.19L45.02-10.57L46.76-10.57L46.76-8.28L45.02-8.28L45.02-3.45Q45.02-2.85 45.23-2.62Q45.45-2.38 46.08-2.38L46.08-2.38Q46.57-2.38 46.90-2.44L46.90-2.44L46.90-0.09Q46.02 0.20 45.05 0.20L45.05 0.20Q43.35 0.20 42.54-0.61Q41.73-1.41 41.73-3.04L41.73-3.04L41.73-8.28L40.38-8.28L40.38-10.57L41.73-10.57L41.73-13.19ZM54.44 0L54.35-1.14Q53.30 0.20 51.52 0.20L51.52 0.20Q49.79 0.20 48.89-0.82Q48.00-1.83 48.00-3.72L48.00-3.72L48.00-10.57L51.29-10.57L51.29-3.70Q51.29-2.34 52.61-2.34L52.61-2.34Q53.74-2.34 54.22-3.15L54.22-3.15L54.22-10.57L57.53-10.57L57.53 0L54.44 0ZM64.86-2.97L64.86-2.97Q64.86-3.39 64.42-3.64Q63.98-3.90 62.75-4.17Q61.52-4.44 60.72-4.89Q59.92-5.33 59.50-5.97Q59.08-6.60 59.08-7.42L59.08-7.42Q59.08-8.88 60.28-9.82Q61.48-10.76 63.43-10.76L63.43-10.76Q65.52-10.76 66.79-9.81Q68.06-8.87 68.06-7.32L68.06-7.32L64.76-7.32Q64.76-8.59 63.42-8.59L63.42-8.59Q62.90-8.59 62.55-8.31Q62.20-8.02 62.20-7.59L62.20-7.59Q62.20-7.15 62.63-6.88Q63.06-6.60 64.00-6.43Q64.94-6.25 65.65-6.01L65.65-6.01Q68.04-5.19 68.04-3.07L68.04-3.07Q68.04-1.62 66.75-0.71Q65.47 0.20 63.43 0.20L63.43 0.20Q62.07 0.20 61.01-0.29Q59.94-0.78 59.35-1.62Q58.75-2.46 58.75-3.39L58.75-3.39L61.83-3.39Q61.85-2.66 62.31-2.32Q62.78-1.98 63.52-1.98L63.52-1.98Q64.19-1.98 64.53-2.26Q64.86-2.53 64.86-2.97Z"></path></g></g></svg>